<svg width="165" height="31" viewBox="0 0 165 31" fill="none" xmlns="http://www.w3.org/2000/svg">
<path d="M3.34892 29.3635L5.20412 11.994L4.08979 7.0884L1.40959 29.3635H3.34892Z" fill="#E63533"/>
<path d="M141.74 29.3635L143.595 11.994L143.227 7.92674L142.481 7.0884L139.801 29.3635H141.74Z" fill="#E63533"/>
<path d="M24.9953 1.57061L27.8304 17.7936L26.701 23.3825L22.694 1.57061H24.9953Z" fill="#E63533"/>
<path d="M45.0585 1.57061H42.3384V29.3641H45.0585V1.57061Z" fill="#E63533"/>
<path d="M66.0602 1.57061H63.7201V29.7867H66.0602V1.57061Z" fill="#E63533"/>
<path d="M86.4467 1.57061H83.9088V29.3641H86.4467V1.57061Z" fill="#E63533"/>
<path d="M100.018 1.81222H97.6494V11.1171H100.018V1.81222Z" fill="#E63533"/>
<path d="M117.514 1.57061H119.825L120.79 15.3592C120.79 15.3592 120.058 24.4697 120.058 24.5603C120.058 24.651 118.537 24.349 118.537 24.349L117.514 1.57061Z" fill="#E63533"/>
<path d="M157.896 1.52995H159.999L161.702 10.079L160.645 13.9763L157.896 1.52995Z" fill="#E63533"/>
<path d="M29.0434 0.0109581V30.6126C28.1234 30.6126 27.1065 30.6251 26.2288 30.6126C26.2046 30.6126 23.6201 14.3209 23.6201 14.3209C23.6201 14.3209 23.3719 12.758 23.2266 11.8515L23.1903 11.6327L23.1007 11.1182L23.0995 11.5264V30.6064H20.9871V0.0171927H23.4324C24.5704 6.66892 25.7143 13.3269 26.8583 19.9786L26.9068 20.2337V0.0109581H29.0434Z" fill="white"/>
<path d="M62.6482 30.6111C62.6482 20.3909 62.6482 10.2183 62.6482 0.0262596C62.7347 0.0156318 62.8055 1.52588e-05 62.8764 1.52588e-05C64.4858 0.00251591 66.0947 0.0125205 67.7041 0.0087695C69.2216 0.00501853 70.279 0.945863 70.71 2.18619C70.9103 2.76321 70.966 3.41591 70.9799 4.0367C71.0162 5.61961 71.0259 7.20563 70.9823 8.78791C70.9491 9.9876 70.733 11.1692 70.3093 12.2957C70.2233 12.5239 70.0454 12.7139 69.9316 12.934C69.8946 13.0046 69.8904 13.1465 69.9346 13.2009C70.7868 14.255 71.0374 15.5178 71.153 16.8362C71.4054 19.7201 71.3376 22.6096 71.2535 25.496C71.2275 26.3856 71.1282 27.2965 70.903 28.1523C70.4993 29.6833 69.1852 30.6192 67.6442 30.6186C66.0814 30.6179 64.5191 30.6136 62.9563 30.6111C62.8649 30.6111 62.7729 30.6111 62.6482 30.6111ZM64.7854 28.4124C64.9144 28.4124 66.3991 28.4036 67.0994 28.4036C67.2393 28.4036 67.3694 28.398 67.4904 28.3805C67.6115 28.363 67.7235 28.3342 67.8264 28.288C68.1127 28.1598 68.3288 27.9222 68.4704 27.5484C68.6332 27.1183 68.7749 26.6725 68.859 26.2206C69.1689 24.5545 69.2778 22.8672 69.2034 21.1755C69.1471 19.9045 69.0248 18.6348 68.8826 17.3708C68.8045 16.6743 68.6478 15.9823 68.2477 15.384C67.9995 15.0127 67.6599 14.767 67.2284 14.7507C66.4627 14.7213 65.6946 14.7407 64.9277 14.7426C64.8762 14.7426 64.8242 14.7657 64.7854 14.7751C64.7854 19.3188 64.7854 23.8443 64.7854 28.4124ZM64.7776 2.05553C64.7776 5.38702 64.7776 8.661 64.7776 11.9569C65.358 11.9569 65.9088 11.9462 66.459 11.9594C67.4608 11.9838 67.9329 11.618 68.2979 10.5671C68.8148 9.07861 68.9964 7.53009 68.9268 5.95406C68.8838 4.98068 68.8094 4.00793 68.4716 3.08206C68.2174 2.385 67.7556 2.05491 67.0419 2.05553C66.5837 2.05616 66.1255 2.05616 65.6673 2.05616C65.3713 2.05553 65.0754 2.05553 64.7776 2.05553Z" fill="white"/>
<path d="M41.6218 0.0200617C42.3626 0.0200617 43.0739 0.0200617 43.8069 0.0200617C43.8075 0.094456 43.7966 10.1014 43.7935 15.0302C43.7911 19.1182 43.8002 23.2067 43.7826 27.2947C43.7802 27.8398 44.0066 28.1499 44.4545 28.3368C45.3527 28.7113 46.2583 28.7131 47.1571 28.3393C47.6274 28.1436 47.8574 27.8023 47.8568 27.244C47.8483 18.3023 47.8526 9.36 47.8538 0.417681C47.8538 0.293899 47.8538 0.169476 47.8538 0.0213123C48.5717 0.0213123 49.2671 0.0213123 50.0032 0.0213123C50.0032 0.455175 50.0025 0.885909 50.0032 1.31665C50.008 6.57364 50.0128 11.8313 50.0171 17.0882C50.0201 20.4704 50.0038 23.8531 50.0352 27.2359C50.0485 28.675 49.0268 29.9779 47.8816 30.3955C47.3702 30.5824 46.8956 30.6186 46.2952 30.6124C45.5531 30.5943 44.9248 30.6555 44.2675 30.5411C42.773 30.2817 41.5824 28.8263 41.5988 27.1552C41.6484 22.0033 41.6206 16.8507 41.6218 11.6981C41.623 7.90836 41.6224 4.11926 41.623 0.329532C41.6224 0.215127 41.6218 0.161974 41.6218 0.0200617Z" fill="white"/>
<path d="M85.1834 30.6162C84.4898 30.6162 83.8088 30.6162 83.1025 30.6162C83.1025 20.4229 83.1025 10.2328 83.1025 0.020779C83.7877 0.020779 84.465 0.020779 85.1834 0.020779C85.1834 10.2103 85.1834 20.3973 85.1834 30.6162Z" fill="white"/>
<path d="M125.622 30.6028C126.3 20.4033 127.009 10.1888 127.685 0.0136248C127.027 0.0136248 126.418 0.0136248 125.787 0.0136248C125.213 7.36241 124.62 14.8806 124.047 22.2181C124.032 22.2175 123.433 16.3254 123.138 13.444C122.299 13.444 121.49 13.444 120.657 13.444C120.365 16.2941 120.061 19.3086 119.763 22.2175C119.747 22.08 119.723 21.7812 119.72 21.7449L118.172 0.0129995H116.899C116.723 0.0129995 116.182 0.0129995 116.182 0.0129995C116.164 0.0129995 116.147 0.0129995 116.128 0.0129995C116.807 10.2194 117.489 20.4689 118.163 30.6116H120.929L120.958 30.2834C120.958 30.2834 120.961 30.2765 120.961 30.2715C121.025 29.5607 121.085 28.8498 121.148 28.139L121.884 19.8375L122.724 28.9799C122.75 29.2843 122.777 29.5844 122.804 29.8901C122.81 29.967 122.818 30.0327 122.825 30.0902L122.873 30.6103H125.578C125.593 30.6103 125.606 30.6116 125.62 30.6116L125.623 30.6103L125.622 30.6028Z" fill="white"/>
<path d="M8.58475 30.611L6.18056 9.37855C6.12366 8.85591 6.06979 8.33204 6.01048 7.80941C5.92453 7.05171 5.83252 6.29462 5.74717 5.5363C5.68241 4.95803 5.62733 4.37851 5.56196 3.79961C5.47661 3.04192 5.38522 2.28547 5.29684 1.5284C5.23753 1.0214 5.17942 0.513754 5.12192 0.0129995C4.5475 0.0129995 4.00819 0.0129995 3.46465 0.0129995L0 30.6103L1.92783 30.6116C1.98352 30.1965 2.85755 22.035 2.86118 21.9593C3.81148 21.9593 4.77811 21.9593 5.72962 21.9593C5.81012 22.7095 5.89063 23.4503 5.96992 24.1912C6.07766 25.202 6.61213 30.4309 6.63755 30.6116C7.23678 30.6116 7.96433 30.6116 8.56296 30.6116L8.58475 30.611ZM3.15595 19.2236C3.53123 15.6427 3.90469 12.0761 4.27815 8.50958C4.29328 8.51021 4.30902 8.51146 4.32415 8.51208C4.69701 12.0736 5.06925 15.6346 5.44453 19.2236C4.66916 19.2236 3.93314 19.2236 3.15595 19.2236Z" fill="white"/>
<path d="M144.677 9.37588C144.622 8.857 144.568 8.33186 144.507 7.80672C144.423 7.05028 144.332 6.29383 144.247 5.53739C144.181 4.95599 144.126 4.38083 144.059 3.79943C143.975 3.04298 143.884 2.28654 143.793 1.5301C143.739 1.02371 143.678 0.511088 143.618 0.0109581H141.965L138.497 30.6126H140.428C140.482 30.2 141.354 22.0354 141.36 21.9604H144.229C144.308 22.7106 144.386 23.4483 144.465 24.1922C144.574 25.205 145.113 30.4313 145.137 30.6126H147.08L144.677 9.37588ZM141.65 19.2222C142.026 15.69 142.395 12.1703 142.764 8.65068L142.801 8.29437C142.801 8.29437 143.587 15.7775 143.945 19.2222H141.65Z" fill="white"/>
<path d="M103.813 14.0437C102.335 12.709 100.893 11.3317 99.4295 9.97952C99.0584 9.63693 98.8611 9.23559 98.8635 8.71608C98.8702 7.09566 98.8629 5.47523 98.8629 3.85481C98.8629 3.08523 99.234 2.54634 99.9367 2.31066C100.629 2.07872 101.325 2.05435 102.028 2.27879C102.747 2.50822 103.12 2.91083 103.202 3.59413V10.4265L103.347 10.3909C103.369 10.3896 103.391 10.389 103.41 10.384C103.573 10.3427 103.734 10.2984 103.896 10.2546L104.688 10.0583C104.75 10.0446 104.811 10.0264 104.873 10.0139C104.884 10.0114 104.89 10.0083 104.9 10.0058L105.131 9.94827V3.73479C105.132 3.59287 105.137 3.45098 105.137 3.30906C105.137 3.16528 105.142 3.01711 105.114 2.8777C104.842 1.51797 104.046 0.632731 102.769 0.228251C101.86 -0.0599489 100.917 0.0113074 99.9869 0.0925785C99.2267 0.158846 98.5349 0.432687 97.975 0.997833C97.2977 1.68051 96.9042 2.47383 96.9169 3.48409C96.9448 5.70217 96.9436 7.9215 96.9381 10.1396C96.9363 10.9129 97.1863 11.5512 97.7571 12.0526C99.2739 13.3842 100.784 14.7251 102.315 16.038C102.733 16.3956 103.025 16.7938 103.099 17.3471C103.136 17.6228 103.173 17.901 103.174 18.1785C103.179 21.073 103.177 23.9669 103.177 26.8614C103.177 27.626 102.838 28.1036 102.125 28.3418C101.401 28.5837 100.676 28.5831 99.9518 28.3418C99.283 28.1186 98.8526 27.5647 98.8508 26.8977C98.8478 25.3448 98.8544 23.7919 98.8557 22.239C98.8569 21.1987 98.8557 20.1584 98.8557 19.0682L96.9321 19.5551V19.8371L96.9315 19.8402C96.9315 19.879 96.9321 19.9184 96.9321 19.9571V20.1547C96.9412 22.5197 96.9708 24.884 96.926 27.2484C96.8994 28.6606 98.0301 30.031 99.171 30.3836C100.126 30.6786 101.095 30.6343 102.062 30.5592C102.831 30.4998 103.539 30.2298 104.1 29.649C104.631 29.0995 105.091 28.5012 105.094 27.6754C105.109 24.1545 105.093 20.6335 105.138 17.1126C105.155 15.8454 104.726 14.8677 103.813 14.0437Z" fill="white"/>
<path d="M163.193 0.0200617L160.78 11.8613L158.367 0.0200617H156.56L159.758 14.6557V30.5974H161.802V14.6557L165 0.0200617H163.193Z" fill="white"/>
</svg>
