<svg width="34" height="100" viewBox="0 0 34 100" fill="none" xmlns="http://www.w3.org/2000/svg">
<path d="M5.80105 14.2528L2.22546 29.8432L2.49363 45.572L12.8629 34.5941L12.7735 11.9465L8.61684 0L8.25928 2.3524L11.2985 11.7159L10.0024 31.8727L4.77307 40.406L3.78978 30.9502L5.75636 18.3118L5.80105 14.2528Z" fill="white"/>
<path d="M21.0868 19.0959L23.3662 30.6734L28.9531 39.1605L29.7129 33.9945L25.0646 4.9815L22.6064 8.11803L25.3328 0.322819L31.8136 30.0277L31.7242 45.8026L21.2655 34.6863L21.0868 19.0959Z" fill="white"/>
<path d="M10.8666 40.6826L21.3252 41.1438L27.4334 50.215L20.461 96.4022L13.578 96.31L11.7008 100H22.3679L31.4263 49.5387L22.07 39.2372H12.3265L10.8666 40.6826Z" fill="white"/>
<path d="M8.54246 43.2348L8.12518 44.9566L5.80104 48.7699L10.0621 85.0245L9.76387 87.9766L2.85117 49.4769L8.54246 43.2348Z" fill="white"/>
<path d="M0 54.6049L1.84179 58.1887L17.0002 63.9466L32.1478 58.22L34 54.6278L17.0002 58.2983L0 54.6049Z" fill="#E63533"/>
</svg>
