<svg width="34" height="100" viewBox="0 0 34 100" fill="none" xmlns="http://www.w3.org/2000/svg">
<path d="M5.77094 14.2528L2.21391 29.8432L2.48068 45.572L12.7961 34.5941L12.7072 11.9465L8.57211 0L8.21641 2.3524L11.2399 11.7159L9.95047 31.8727L4.7483 40.406L3.77011 30.9502L5.72648 18.3118L5.77094 14.2528Z" fill="white"/>
<path d="M20.9773 19.0959L23.2449 30.6734L28.8028 39.1605L29.5587 33.9945L24.9345 4.9815L22.489 8.11803L25.2013 0.322819L31.6484 30.0277L31.5595 45.8026L21.1552 34.6863L20.9773 19.0959Z" fill="white"/>
<path d="M10.8102 40.6826L21.2145 41.1438L27.291 50.215L20.3548 96.4022L13.5075 96.31L11.64 100H22.2518L31.2632 49.5387L21.9555 39.2372H12.2625L10.8102 40.6826Z" fill="white"/>
<path d="M8.49812 43.2348L8.08301 44.9566L5.77093 48.7699L10.0099 85.0245L9.7132 87.9766L2.83637 49.4769L8.49812 43.2348Z" fill="white"/>
<path d="M0 54.6049L1.83223 58.1887L16.9119 63.9466L31.981 58.22L33.8235 54.6278L16.9119 58.2983L0 54.6049Z" fill="#E63533"/>
</svg>
