<svg width="222" height="42" viewBox="0 0 222 42" fill="none" xmlns="http://www.w3.org/2000/svg">
<path d="M4.50582 40.2785L7.0019 16.4524L5.50262 9.72325L1.89654 40.2785H4.50582Z" fill="#E63533"/>
<path d="M190.705 40.2785L193.201 16.4524L192.706 10.8732L191.702 9.72325L188.096 40.2785H190.705Z" fill="#E63533"/>
<path d="M33.63 2.15441L37.4446 24.4077L35.925 32.0742L30.5337 2.15441H33.63Z" fill="#E63533"/>
<path d="M60.6242 2.15441H56.9643V40.2792H60.6242V2.15441Z" fill="#E63533"/>
<path d="M88.8809 2.15441H85.7325V40.8589H88.8809V2.15441Z" fill="#E63533"/>
<path d="M116.31 2.15441H112.895V40.2792H116.31V2.15441Z" fill="#E63533"/>
<path d="M134.57 2.48583H131.383V15.2495H134.57V2.48583Z" fill="#E63533"/>
<path d="M158.109 2.15441H161.218L162.517 21.0684C162.517 21.0684 161.533 33.5654 161.533 33.6898C161.533 33.8141 159.486 33.4 159.486 33.4L158.109 2.15441Z" fill="#E63533"/>
<path d="M212.442 2.09864H215.271L217.562 13.8255L216.14 19.1715L212.442 2.09864Z" fill="#E63533"/>
<path d="M39.0766 0.0150104V41.9919C37.8387 41.9919 36.4706 42.009 35.2897 41.9919C35.2571 41.9919 31.7797 19.6442 31.7797 19.6442C31.7797 19.6442 31.4458 17.5004 31.2504 16.2569L31.2015 15.9568L31.081 15.251L31.0794 15.811V41.9833H28.2372V0.0235626H31.5273C33.0583 9.14785 34.5975 18.2807 36.1367 27.405L36.2018 27.7549V0.0150104H39.0766Z" fill="white"/>
<path d="M84.2903 41.9897C84.2903 27.9706 84.2903 14.0166 84.2903 0.0359998C84.4067 0.0214215 84.502 0 84.5973 0C86.7627 0.00343018 88.9274 0.0171536 91.0928 0.0120083C93.1345 0.00686307 94.5572 1.29744 95.137 2.99881C95.4066 3.79032 95.4815 4.68564 95.5002 5.53718C95.5491 7.70849 95.5621 9.88406 95.5035 12.0545C95.4587 13.7001 95.168 15.3209 94.5979 16.8662C94.4823 17.1792 94.2428 17.4399 94.0897 17.7418C94.0401 17.8387 94.0344 18.0333 94.0938 18.1079C95.2405 19.5538 95.5776 21.286 95.7332 23.0945C96.0728 27.0504 95.9816 31.014 95.8683 34.9733C95.8333 36.1936 95.6998 37.443 95.3968 38.617C94.8536 40.7171 93.0856 42.0009 91.0122 42C88.9095 41.9991 86.8075 41.9932 84.7048 41.9897C84.5818 41.9897 84.458 41.9897 84.2903 41.9897ZM87.1658 38.9737C87.3393 38.9737 89.337 38.9617 90.2792 38.9617C90.4674 38.9617 90.6424 38.954 90.8053 38.93C90.9682 38.906 91.1189 38.8665 91.2573 38.8031C91.6425 38.6273 91.9333 38.3014 92.1238 37.7886C92.3429 37.1986 92.5334 36.5872 92.6466 35.9672C93.0636 33.6818 93.2102 31.3673 93.11 29.0468C93.0343 27.3034 92.8698 25.5617 92.6784 23.8277C92.5734 22.8724 92.3624 21.9231 91.8241 21.1025C91.4902 20.5931 91.0334 20.2561 90.4527 20.2338C89.4225 20.1935 88.3891 20.2201 87.3572 20.2226C87.288 20.2226 87.218 20.2544 87.1658 20.2672C87.1658 26.4999 87.1658 32.7076 87.1658 38.9737ZM87.1553 2.81959C87.1553 7.38945 87.1553 11.8804 87.1553 16.4014C87.9362 16.4014 88.6773 16.3869 89.4176 16.4049C90.7654 16.4383 91.4006 15.9366 91.8917 14.4951C92.5872 12.4533 92.8315 10.3291 92.7379 8.16726C92.68 6.83207 92.5799 5.49772 92.1254 4.22769C91.7834 3.27153 91.162 2.81873 90.2019 2.81959C89.5854 2.82045 88.9689 2.82045 88.3524 2.82045C87.9542 2.81959 87.5559 2.81959 87.1553 2.81959Z" fill="white"/>
<path d="M56.0002 0.0274981C56.997 0.0274981 57.9539 0.0274981 58.9401 0.0274981C58.9409 0.129546 58.9263 13.8563 58.9222 20.6172C58.919 26.2247 58.9312 31.833 58.9076 37.4405C58.9043 38.1883 59.2089 38.6137 59.8115 38.8701C61.0201 39.3837 62.2384 39.3863 63.4477 38.8735C64.0805 38.6051 64.39 38.1368 64.3892 37.371C64.3778 25.1056 64.3835 12.8393 64.3851 0.572919C64.3851 0.403125 64.3851 0.232452 64.3851 0.0292136C65.351 0.0292136 66.2867 0.0292136 67.277 0.0292136C67.277 0.62435 67.2761 1.2152 67.277 1.80605C67.2835 9.01715 67.29 16.2291 67.2957 23.4402C67.2998 28.0795 67.2778 32.7197 67.3201 37.3599C67.338 39.334 65.9634 41.1211 64.4226 41.694C63.7344 41.9504 63.0959 42.0001 62.2881 41.9915C61.2896 41.9667 60.4443 42.0507 59.5599 41.8938C57.5492 41.5379 55.9473 39.5415 55.9693 37.2493C56.036 30.1823 55.9986 23.1143 56.0002 16.0465C56.0018 10.848 56.001 5.65045 56.0018 0.452003C56.001 0.295072 56.0002 0.222161 56.0002 0.0274981Z" fill="white"/>
<path d="M114.61 41.9968C113.677 41.9968 112.761 41.9968 111.811 41.9968C111.811 28.0145 111.811 14.0365 111.811 0.028482C112.732 0.028482 113.644 0.028482 114.61 0.028482C114.61 14.0056 114.61 27.9793 114.61 41.9968Z" fill="white"/>
<path d="M169.019 41.9784C169.931 27.9875 170.884 13.9761 171.794 0.0186684C170.91 0.0186684 170.09 0.0186684 169.24 0.0186684C168.469 10.0991 167.67 20.412 166.9 30.477C166.879 30.4761 166.074 22.3938 165.676 18.4413C164.548 18.4413 163.459 18.4413 162.338 18.4413C161.946 22.3509 161.536 26.486 161.135 30.4761C161.114 30.2875 161.082 29.8776 161.078 29.8278L158.995 0.0178107H157.282C157.046 0.0178107 156.318 0.0178107 156.318 0.0178107C156.294 0.0178107 156.27 0.0178107 156.245 0.0178107C157.158 14.0181 158.076 28.0776 158.983 41.9904H162.705L162.744 41.5402C162.744 41.5402 162.747 41.5308 162.747 41.5239C162.833 40.5489 162.915 39.5738 162.999 38.5988L163.99 27.2115L165.119 39.7522C165.155 40.1698 165.191 40.5814 165.227 41.0008C165.236 41.1063 165.246 41.1963 165.256 41.2752L165.32 41.9887H168.96C168.979 41.9887 168.997 41.9904 169.016 41.9904L169.02 41.9887L169.019 41.9784Z" fill="white"/>
<path d="M11.5504 41.9896L8.31566 12.8647C8.23911 12.1478 8.16663 11.4292 8.08682 10.7123C7.97118 9.67293 7.84739 8.63442 7.73256 7.59422C7.64542 6.80099 7.57131 6.00606 7.48336 5.21198C7.36853 4.17263 7.24556 3.135 7.12666 2.09652C7.04685 1.40105 6.96867 0.704705 6.89131 0.0178107C6.11846 0.0178107 5.39284 0.0178107 4.66153 0.0178107L0 41.9887L2.59381 41.9904C2.66873 41.421 3.8447 30.2257 3.84959 30.122C5.12817 30.122 6.42873 30.122 7.70894 30.122C7.81726 31.151 7.92557 32.1672 8.03226 33.1834C8.17722 34.5701 8.89632 41.7426 8.93052 41.9904C9.73676 41.9904 10.7156 41.9904 11.5211 41.9904L11.5504 41.9896ZM4.24619 26.3693C4.75111 21.4573 5.25358 16.565 5.75606 11.6727C5.77642 11.6736 5.79759 11.6753 5.81795 11.6761C6.31961 16.5616 6.82045 21.4462 7.32537 26.3693C6.28215 26.3693 5.29186 26.3693 4.24619 26.3693Z" fill="white"/>
<path d="M194.656 12.861C194.583 12.1493 194.51 11.4289 194.428 10.7086C194.314 9.67096 194.192 8.63334 194.078 7.59571C193.988 6.79819 193.915 6.00924 193.826 5.21172C193.711 4.17409 193.589 3.13647 193.467 2.09884C193.394 1.40422 193.312 0.701047 193.231 0.0150104H191.008L186.341 41.9919H188.939C189.013 41.4259 190.185 30.2263 190.193 30.1234H194.054C194.159 31.1525 194.265 32.1644 194.371 33.1849C194.518 34.5741 195.243 41.7432 195.275 41.9919H197.889L194.656 12.861ZM190.584 26.3674C191.089 21.5222 191.586 16.6942 192.083 11.8663L192.132 11.3775C192.132 11.3775 193.19 21.6423 193.671 26.3674H190.584Z" fill="white"/>
<path d="M139.676 19.264C137.687 17.4331 135.747 15.5439 133.778 13.6891C133.279 13.2191 133.013 12.6686 133.016 11.956C133.025 9.73321 133.016 7.51044 133.016 5.28768C133.016 4.23204 133.515 3.49284 134.46 3.16955C135.391 2.8514 136.328 2.81797 137.274 3.12583C138.241 3.44055 138.743 3.99281 138.854 4.93011V14.3022L139.049 14.2534C139.079 14.2516 139.108 14.2508 139.134 14.2439C139.352 14.1873 139.57 14.1264 139.788 14.0664L140.853 13.7971C140.936 13.7783 141.019 13.7534 141.102 13.7363C141.116 13.7328 141.125 13.7285 141.138 13.7251L141.449 13.6462V5.12305C141.451 4.92839 141.457 4.73374 141.457 4.53908C141.457 4.34184 141.463 4.1386 141.426 3.94737C141.06 2.0822 139.989 0.867907 138.272 0.313075C137.048 -0.0822539 135.78 0.0154896 134.528 0.126971C133.505 0.21787 132.574 0.593503 131.821 1.36872C130.91 2.30516 130.38 3.39338 130.397 4.77917C130.435 7.82174 130.433 10.866 130.426 13.9086C130.423 14.9694 130.76 15.8449 131.528 16.5327C133.569 18.3593 135.6 20.1987 137.661 21.9995C138.222 22.4901 138.616 23.0363 138.715 23.7952C138.765 24.1734 138.815 24.555 138.816 24.9358C138.823 28.9062 138.82 32.8758 138.82 36.8462C138.82 37.895 138.364 38.5502 137.405 38.8769C136.43 39.2088 135.455 39.2079 134.481 38.8769C133.581 38.5708 133.002 37.811 132.999 36.896C132.995 34.7658 133.004 32.6357 133.006 30.5055C133.007 29.0786 133.006 27.6517 133.006 26.1561L130.418 26.8241V27.2109L130.417 27.2152C130.417 27.2683 130.418 27.3224 130.418 27.3755V27.6465C130.43 30.8906 130.47 34.1338 130.41 37.3771C130.374 39.3143 131.895 41.194 133.43 41.6776C134.715 42.0824 136.018 42.0215 137.32 41.9186C138.355 41.8371 139.307 41.4667 140.062 40.67C140.777 39.9163 141.395 39.0956 141.4 37.9628C141.42 33.1331 141.397 28.3034 141.458 23.4737C141.482 21.7354 140.904 20.3942 139.676 19.264Z" fill="white"/>
<path d="M219.569 0.0274981L216.322 16.2703L213.076 0.0274981H210.644L214.947 20.1035V41.9709H217.697V20.1035L222 0.0274981H219.569Z" fill="white"/>
</svg>
