<svg width="20" height="20" viewBox="0 0 20 20" fill="none" xmlns="http://www.w3.org/2000/svg">
<path d="M6.1 14.8C5.7975 14.8 5.53863 14.6924 5.3234 14.4771C5.10817 14.2619 5.00037 14.0029 5 13.7V7.1C5 6.7975 5.1078 6.53863 5.3234 6.3234C5.539 6.10817 5.79787 6.00037 6.1 6H14.9C15.2025 6 15.4615 6.1078 15.6771 6.3234C15.8927 6.539 16.0004 6.79787 16 7.1V13.7C16 14.0025 15.8924 14.2615 15.6771 14.4771C15.4619 14.6927 15.2029 14.8004 14.9 14.8H6.1ZM10.5 10.95L14.9 8.2V7.1L10.5 9.85L6.1 7.1V8.2L10.5 10.95Z" fill="white"/>
</svg>
