<svg width="20" height="20" viewBox="0 0 20 20" fill="none" xmlns="http://www.w3.org/2000/svg">
<g clip-path="url(#clip0_1003_194)">
<path fill-rule="evenodd" clip-rule="evenodd" d="M14.136 5.94674C14.2734 5.88973 14.4238 5.87007 14.5715 5.8898C14.7193 5.90953 14.859 5.96794 14.976 6.05894C15.0931 6.14994 15.1833 6.27022 15.2372 6.40724C15.2911 6.54426 15.3068 6.69302 15.2826 6.83804L14.0214 14.379C13.8991 15.1064 13.0894 15.5235 12.4127 15.1612C11.8466 14.8581 11.0058 14.391 10.2495 13.9037C9.87141 13.6598 8.7131 12.8787 8.85546 12.3229C8.9778 11.8476 10.9241 10.0617 12.0362 8.99995C12.4727 8.58281 12.2737 8.34217 11.7582 8.72588C10.4775 9.67857 8.42283 11.1273 7.7433 11.5352C7.14385 11.8947 6.83134 11.9561 6.45765 11.8947C5.7759 11.7829 5.14364 11.6097 4.6276 11.3987C3.93028 11.1136 3.9642 10.1686 4.62705 9.89344L14.136 5.94674Z" fill="white"/>
</g>
<defs>
<clipPath id="clip0_1003_194">
<rect width="20" height="20" fill="white"/>
</clipPath>
</defs>
</svg>
