<svg width="225" height="25" viewBox="0 0 225 25" fill="none" xmlns="http://www.w3.org/2000/svg">
<path d="M176.272 22.9385C176.272 23.5604 176.272 24.1164 176.272 24.7324C173.539 24.7324 170.84 24.7324 168.107 24.7324C168.107 16.5128 168.107 8.31395 168.107 0.0811729C170.848 0.0811729 173.553 0.0811729 176.301 0.0811729C176.301 0.640097 176.301 1.19024 176.301 1.80408C174.307 1.80408 172.345 1.80408 170.34 1.80408C170.34 4.44029 170.34 7.01378 170.34 9.67465C172.282 9.71541 174.244 9.65952 176.248 9.69564C176.248 10.4366 176.248 11.1481 176.248 11.9316C174.295 11.9316 172.334 11.9316 170.338 11.9316C170.338 15.6258 170.338 19.2496 170.338 22.9385C172.336 22.9385 174.297 22.9385 176.272 22.9385Z" fill="white"/>
<path d="M31.9734 22.9385C31.9734 23.5604 31.9734 24.1164 31.9734 24.7324C29.2406 24.7324 26.5412 24.7324 23.8086 24.7324C23.8086 16.5128 23.8086 8.31395 23.8086 0.0811729C26.5495 0.0811729 29.2541 0.0811729 32.0021 0.0811729C32.0021 0.640097 32.0021 1.19024 32.0021 1.80408C30.0086 1.80408 28.0458 1.80408 26.0409 1.80408C26.0409 4.44029 26.0409 7.01378 26.0409 9.67465C27.9829 9.71541 29.9451 9.65952 31.9494 9.69564C31.9494 10.4366 31.9494 11.1481 31.9494 11.9316C29.9958 11.9316 28.0349 11.9316 26.0395 11.9316C26.0395 15.6258 26.0395 19.2496 26.0395 22.9385C28.037 22.9385 29.9979 22.9385 31.9734 22.9385Z" fill="white"/>
<path d="M130.788 0.080368V2.29654H127.861V24.7438H125.684C125.653 23.2672 125.674 21.7881 125.669 20.309C125.667 18.8202 125.669 17.3289 125.669 15.8401V2.31606H122.659V0.0852505C122.759 0.0828098 122.858 0.080368 122.958 0.080368H130.788Z" fill="white"/>
<path d="M95.8262 0.080368V2.29654H92.8991V24.7438H90.7216C90.6908 23.2672 90.7121 21.7881 90.7074 20.309C90.705 18.8202 90.7074 17.3289 90.7074 15.8401V2.31606H87.6973V0.0852505C87.7969 0.0828098 87.8965 0.080368 87.9961 0.080368H95.8262Z" fill="white"/>
<path d="M8.37701 0.080368V2.29654H5.44992V24.7438H3.27239C3.24156 23.2672 3.2629 21.7881 3.25816 20.309C3.25579 18.8202 3.25816 17.3289 3.25816 15.8401V2.31606H0.248047V0.0852505C0.347672 0.0828098 0.447297 0.080368 0.546923 0.080368H8.37701Z" fill="white"/>
<path d="M63.1791 0.0513687H61.5116C60.3611 8.26682 59.1846 16.4774 58.0342 24.7319H59.965C60.2694 22.4308 60.5713 20.1592 60.8709 17.9089H63.8027C63.8101 17.9108 63.8201 17.9128 63.8267 17.915C64.1232 20.1702 64.4221 22.4352 64.7257 24.7319H66.6636C65.4919 16.4408 64.3343 8.23997 63.1791 0.0513687ZM62.2872 6.99032C62.7925 9.83131 63.1364 12.6918 63.5231 15.589H61.1724C61.5495 12.6918 61.9172 9.84108 62.2872 6.99032Z" fill="white"/>
<path d="M116.551 0.0513687H114.884C113.733 8.26682 112.557 16.4774 111.406 24.7319H113.337C113.641 22.4308 113.943 20.1592 114.243 17.9089H117.175C117.182 17.9108 117.192 17.9128 117.199 17.915C117.495 20.1702 117.794 22.4352 118.098 24.7319H120.036C118.864 16.4408 117.706 8.23997 116.551 0.0513687ZM115.659 6.99032C116.165 9.83131 116.509 12.6918 116.895 15.589H114.544C114.922 12.6918 115.289 9.84108 115.659 6.99032Z" fill="white"/>
<path d="M224.331 7.83676V8.10036C223.664 8.21508 222.964 8.33711 222.253 8.45915C222.253 7.92219 222.25 7.48042 222.253 7.03621C222.257 5.82562 222.267 4.61502 222.265 3.40687C222.262 2.52577 221.947 2.13525 221.114 1.92535C220.512 1.77403 219.914 1.77647 219.316 1.94244C218.593 2.14258 218.268 2.55749 218.265 3.3312C218.261 4.60037 218.275 5.86711 218.275 7.13628C218.272 7.51703 218.412 7.8148 218.704 8.04423C219.999 9.05956 221.297 10.0725 222.59 11.0951C222.981 11.4027 223.365 11.7199 223.73 12.0568C224.134 12.4302 224.309 12.9159 224.309 13.4699C224.309 16.4159 224.307 19.3618 224.307 22.3102C224.307 22.8179 224.048 23.1962 223.738 23.5452C223.161 24.1944 222.421 24.5435 221.596 24.646C220.54 24.7753 219.477 24.7924 218.427 24.5606C217.777 24.4165 217.224 24.1017 216.752 23.6233C216.346 23.2133 216.083 22.7398 216.085 22.1296C216.09 20.1184 216.083 18.1097 216.083 16.0986V16.0839L218.256 15.5909H218.265V16.2109C218.265 17.9267 218.261 19.6449 218.263 21.3632C218.265 22.3444 218.593 22.7227 219.511 22.9424C220.087 23.0815 220.642 23.0351 221.197 22.8984C221.921 22.7251 222.262 22.2882 222.262 21.5219C222.267 19.2593 222.265 16.9943 222.253 14.7318C222.248 14.0386 222.034 13.4602 221.425 13.0428C220.146 12.169 218.891 11.2562 217.639 10.3434C217.179 10.009 216.643 9.74785 216.365 9.20601C216.237 8.95705 216.102 8.66905 216.1 8.39569C216.081 6.44556 216.092 4.49542 216.097 2.54285C216.1 2.0425 216.356 1.65931 216.667 1.30541C217.39 0.482889 218.346 0.192441 219.371 0.124101C220.296 0.0655239 221.226 0.050882 222.136 0.309598C222.817 0.502414 223.382 0.873401 223.842 1.4128C224.138 1.75938 224.326 2.15478 224.326 2.63072C224.326 4.36607 224.331 6.10142 224.331 7.83676Z" fill="white"/>
<path d="M211.735 22.9385C211.735 23.5604 211.735 24.1164 211.735 24.7324C209.002 24.7324 206.303 24.7324 203.57 24.7324C203.57 16.5128 203.57 8.31395 203.57 0.0811729C206.311 0.0811729 209.016 0.0811729 211.764 0.0811729C211.764 0.640097 211.764 1.19024 211.764 1.80408C209.77 1.80408 207.807 1.80408 205.803 1.80408C205.803 4.44029 205.803 7.01378 205.803 9.67465C207.745 9.71541 209.707 9.65952 211.711 9.69564C211.711 10.4366 211.711 11.1481 211.711 11.9316C209.758 11.9316 207.797 11.9316 205.801 11.9316C205.801 15.6258 205.801 19.2496 205.801 22.9385C207.798 22.9385 209.759 22.9385 211.735 22.9385Z" fill="white"/>
<path d="M67.7461 0.0811729C68.3941 0.0811729 68.995 0.0811729 69.6323 0.0811729C70.4139 3.19675 71.2363 6.29597 72.0139 9.39519C71.9792 9.39275 72.0485 9.39763 72.0139 9.39519C72.7893 6.305 73.6233 3.22238 74.408 0.0948446C75.0268 0.0948446 75.6419 0.0948446 76.3068 0.0948446C76.1322 0.757011 75.9671 1.39647 75.7949 2.03375C74.9547 5.142 74.1074 8.24805 73.2779 11.3592C73.1788 11.731 73.1282 12.1288 73.1285 12.5144C73.1311 16.3339 73.1494 20.1536 73.1631 23.9731C73.1641 24.2228 73.1631 24.4725 73.1631 24.7426C72.4031 24.7426 71.7119 24.7426 70.96 24.7426C70.96 24.492 70.96 24.2816 70.96 24.0712C70.9609 20.3103 70.969 16.5494 70.9545 12.7888C70.9526 12.3072 70.8841 11.812 70.7605 11.3475C69.8166 7.80213 68.8512 4.2631 67.8941 0.721619C67.8393 0.518795 67.799 0.311821 67.7461 0.0811729Z" fill="white"/>
<path d="M199.43 0.080368V2.29654H196.503V24.7438H194.325C194.294 23.2672 194.316 21.7881 194.311 20.309C194.309 18.8202 194.311 17.3289 194.311 15.8401V2.31606H191.301V0.0852505C191.4 0.0828098 191.5 0.080368 191.6 0.080368H199.43Z" fill="white"/>
<path d="M55.9139 0.0756187C55.2284 8.30327 54.5476 16.5016 53.8644 24.7439H50.999C50.693 21.9835 50.3396 19.2499 50.036 16.5138C49.7323 19.2499 49.3908 21.9835 49.0824 24.7439H46.236C45.5481 16.487 44.8697 8.29595 44.1865 0.0805012H46.1268C46.6985 5.94066 47.3105 11.7544 47.8798 17.5658C48.1621 15.374 48.4847 13.1823 48.7669 11.0027C48.7693 11.0027 48.7717 11.0003 48.774 11.0003H51.3145C51.5991 13.1823 51.9217 15.3862 52.2064 17.5878C52.7757 11.7642 53.3995 5.94066 53.9712 0.0756187H55.9139Z" fill="white"/>
<path d="M185.26 0.0811729H183.593C182.442 8.29027 181.266 16.4945 180.115 24.7426H182.046C182.35 22.4435 182.652 20.1734 182.952 17.925H185.884C185.891 17.9272 185.901 17.9289 185.908 17.9311C186.204 20.1846 186.503 22.4479 186.807 24.7426H188.745C187.573 16.4579 186.415 8.26343 185.26 0.0811729ZM184.368 7.01476C184.874 9.85355 185.217 12.7119 185.604 15.6068H183.253C183.631 12.7119 183.998 9.86332 184.368 7.01476Z" fill="white"/>
<path d="M162.164 11.3163C163.033 10.7076 163.611 9.91411 163.832 8.86729C163.877 8.65787 163.927 8.44846 163.965 8.23685C164.276 6.40851 164.193 4.57065 164.053 2.73255C164.003 2.07282 163.742 1.50316 163.253 1.03576C162.539 0.354069 161.695 0.0936475 160.755 0.0887661C159.308 0.0790032 157.862 0.0814442 156.417 0.0814442H155.665V24.7378H157.814V12.008H160.193C160.777 16.2756 161.353 20.5093 161.932 24.7427H164.185C163.512 20.263 162.843 15.8226 162.164 11.3163ZM161.417 8.48507C161.09 9.32248 160.511 9.74863 159.622 9.72178C159.04 9.70469 158.455 9.7169 157.816 9.7169V1.75626H158.853C159.249 1.75382 159.645 1.75138 160.041 1.75382C160.978 1.76358 161.46 2.08991 161.692 3.03202C161.87 3.76473 161.979 4.52916 162.008 5.28383C162.048 6.38654 161.82 7.45777 161.417 8.48507Z" fill="white"/>
<path d="M151.655 16.0133C151.655 15.9766 151.655 15.9376 151.652 15.901C151.655 15.7912 151.652 15.6813 151.65 15.5715L151.624 15.5764L149.57 15.9937L149.555 15.9962V16.6161C149.555 18.2563 149.558 19.8964 149.551 21.5366C149.546 22.2493 149.316 22.5934 148.692 22.8229C147.895 23.1133 147.091 23.1157 146.299 22.8131C145.72 22.591 145.57 22.3542 145.57 21.7148V3.14824C145.57 2.45996 145.789 2.14999 146.436 1.96693C147.046 1.79608 147.663 1.75459 148.291 1.90348C149.29 2.14023 149.586 2.50145 149.584 3.56805C149.582 4.37836 149.567 5.19112 149.555 6.00144L149.553 5.999C149.551 6.00632 149.551 6.39439 149.551 6.85813V6.98993C149.551 7.66845 149.553 8.44459 149.553 8.44459L149.887 8.38846L151.107 8.18832L151.636 8.10045C151.636 6.18937 151.64 4.3564 151.629 2.52342C151.626 2.12314 151.441 1.76924 151.19 1.46659C150.801 1.00285 150.35 0.609897 149.771 0.426844C148.263 -0.0466552 146.74 -0.0735046 145.243 0.436605C143.969 0.871052 143.367 1.79853 143.369 3.17753C143.379 9.44529 143.395 15.7106 143.393 21.9784C143.393 22.7033 143.654 23.25 144.159 23.7235C144.605 24.1408 145.117 24.4142 145.701 24.5558C146.657 24.7852 147.625 24.773 148.585 24.668C149.069 24.6168 149.572 24.5118 150.006 24.2995C151.031 23.8016 151.693 23.0328 151.667 21.7538C151.629 19.8403 151.657 17.9268 151.655 16.0133Z" fill="white"/>
<path d="M11.9049 24.712V24.7315H14.0539V24.712H14.0895V12.0012H17.8587V24.7315H17.8705H20.0575V0.302356V0.0809801H20.0433H17.8871H17.8587V9.67787H14.0895V1.73994C14.0895 1.46023 14.0942 1.18052 14.0895 0.900573V0.0807381H14.0587H11.9049H11.8906V24.712H11.9049Z" fill="white"/>
<path d="M99.5914 24.7122V24.7318H101.74V24.7122H101.776V11.9595H105.545V24.7318H105.557H107.744V0.222106V0H107.73H105.574H105.545V9.62862H101.776V1.66457C101.776 1.38389 101.781 1.1032 101.776 0.82252V0H101.745H99.5914H99.5771V24.7122H99.5914Z" fill="white"/>
</svg>
