<svg width="20" height="20" viewBox="0 0 20 20" fill="none" xmlns="http://www.w3.org/2000/svg">
<path fill-rule="evenodd" clip-rule="evenodd" d="M17.8574 5.93142C17.9714 5.56437 17.8574 5.29411 17.3119 5.29411H15.5104C15.052 5.29411 14.8406 5.52739 14.726 5.78487C14.726 5.78487 13.8099 7.93344 12.5122 9.32907C12.0922 9.73378 11.9014 9.86218 11.6722 9.86218C11.5576 9.86218 11.3853 9.73378 11.3853 9.36605V5.93142C11.3853 5.49042 11.2591 5.29411 10.8775 5.29411H8.04461C7.75844 5.29411 7.58619 5.49848 7.58619 5.69277C7.58619 6.11025 8.23539 6.20705 8.30196 7.38218V9.93546C8.30196 10.4955 8.19696 10.597 7.96775 10.597C7.35698 10.597 5.87123 8.43831 4.98938 5.9684C4.81851 5.48773 4.64557 5.29411 4.18509 5.29411H2.38228C1.86759 5.29411 1.76465 5.52739 1.76465 5.78487C1.76465 6.24336 2.37542 8.521 4.6092 11.5334C6.09838 13.5906 8.19491 14.7059 10.1048 14.7059C11.2501 14.7059 11.3915 14.4585 11.3915 14.0316V12.4766C11.3915 11.9812 11.4999 11.8823 11.863 11.8823C12.1306 11.8823 12.5883 12.0114 13.6575 13.003C14.8791 14.1788 15.0802 14.7059 15.7678 14.7059H17.5692C18.0839 14.7059 18.3419 14.4585 18.1937 13.9691C18.0304 13.4823 17.4471 12.7758 16.6736 11.9375C16.2537 11.4602 15.6237 10.9459 15.4322 10.6884C15.1652 10.3583 15.2414 10.2111 15.4322 9.91731C15.4322 9.91731 17.6282 6.94184 17.8568 5.93142H17.8574Z" fill="white"/>
</svg>
