<svg width="20" height="20" viewBox="0 0 20 20" fill="none" xmlns="http://www.w3.org/2000/svg">
<path d="M8.33366 12.5L12.6587 9.99999L8.33366 7.49999V12.5ZM17.967 5.97499C18.0753 6.36666 18.1503 6.89166 18.2003 7.55832C18.2587 8.22499 18.2837 8.79999 18.2837 9.29999L18.3337 9.99999C18.3337 11.825 18.2003 13.1667 17.967 14.025C17.7587 14.775 17.2753 15.2583 16.5253 15.4667C16.1337 15.575 15.417 15.65 14.317 15.7C13.2337 15.7583 12.242 15.7833 11.3253 15.7833L10.0003 15.8333C6.50866 15.8333 4.33366 15.7 3.47533 15.4667C2.72533 15.2583 2.24199 14.775 2.03366 14.025C1.92533 13.6333 1.85033 13.1083 1.80033 12.4417C1.74199 11.775 1.71699 11.2 1.71699 10.7L1.66699 9.99999C1.66699 8.17499 1.80033 6.83332 2.03366 5.97499C2.24199 5.22499 2.72533 4.74166 3.47533 4.53332C3.86699 4.42499 4.58366 4.34999 5.68366 4.29999C6.76699 4.24166 7.75866 4.21666 8.67533 4.21666L10.0003 4.16666C13.492 4.16666 15.667 4.29999 16.5253 4.53332C17.2753 4.74166 17.7587 5.22499 17.967 5.97499Z" fill="white"/>
</svg>
