<svg width="122" height="629" viewBox="0 0 122 629" fill="none" xmlns="http://www.w3.org/2000/svg">
<path d="M116.259 616.234L47.7953 609.161L28.4591 613.409L116.259 623.626V616.234Z" fill="#E63533"/>
<path d="M116.259 88.6694L47.7953 81.5972L31.7636 83.0001L28.4591 85.8451L116.259 96.0624V88.6694Z" fill="#E63533"/>
<path d="M6.7102 533.715L70.6547 522.907L92.6843 527.213L6.7102 542.488L6.7102 533.715Z" fill="#E63533"/>
<path d="M6.7102 457.231L6.7102 467.601H116.261V457.231H6.7102Z" fill="#E63533"/>
<path d="M6.7102 377.171V386.091H117.927V377.171H6.7102Z" fill="#E63533"/>
<path d="M6.7102 299.455L6.7102 309.13H116.261V299.455H6.7102Z" fill="#E63533"/>
<path d="M7.66252 247.718V256.749H44.3388V247.718H7.66252Z" fill="#E63533"/>
<path d="M6.7102 181.024V172.214L61.0594 168.534C61.0594 168.534 96.9693 171.324 97.3266 171.324C97.6839 171.324 96.4938 177.122 96.4938 177.122L6.7102 181.024Z" fill="#E63533"/>
<path d="M6.54993 27.0822L6.54993 19.0662L40.247 12.5731L55.6085 16.6019L6.54993 27.0822Z" fill="#E63533"/>
<path d="M0.562663 518.283H121.182C121.182 521.79 121.232 525.667 121.182 529.012C121.182 529.105 56.9669 538.957 56.9669 538.957C56.9669 538.957 50.8066 539.903 47.2336 540.457L46.3711 540.596L44.3431 540.937L45.9522 540.942H121.158V548.995H0.587238L0.587238 539.673C26.8057 535.335 53.0489 530.974 79.2674 526.613L80.2728 526.428H0.562663L0.562663 518.283Z" fill="white"/>
<path d="M121.176 390.178C80.8925 390.178 40.7959 390.178 0.622976 390.178C0.581086 389.848 0.519531 389.578 0.519531 389.308C0.529388 383.172 0.568822 377.039 0.554037 370.904C0.539252 365.119 4.24769 361.088 9.13655 359.445C11.411 358.681 13.9836 358.469 16.4305 358.416C22.6698 358.278 28.9212 358.241 35.158 358.407C39.8867 358.534 44.5439 359.357 48.9843 360.973C49.8837 361.3 50.6328 361.979 51.5002 362.412C51.7786 362.553 52.338 362.569 52.5524 362.401C56.7069 359.152 61.6845 358.197 66.8813 357.756C78.2484 356.794 89.6377 357.052 101.015 357.373C104.521 357.472 108.111 357.851 111.485 358.709C117.519 360.248 121.208 365.257 121.206 371.132C121.203 377.09 121.186 383.045 121.176 389.003C121.176 389.352 121.176 389.702 121.176 390.178ZM112.51 382.03C112.51 381.539 112.475 375.879 112.475 373.209C112.475 372.676 112.453 372.18 112.384 371.718C112.315 371.257 112.202 370.83 112.02 370.438C111.514 369.346 110.578 368.522 109.104 367.983C107.409 367.362 105.652 366.822 103.871 366.501C97.3037 365.32 90.6529 364.904 83.985 365.188C78.9754 365.403 73.9706 365.869 68.9882 366.411C66.2431 366.709 63.5153 367.306 61.1571 368.832C59.6934 369.778 58.7251 371.072 58.661 372.717C58.5452 375.636 58.6216 378.564 58.6289 381.488C58.6289 381.684 58.7201 381.882 58.7571 382.03C76.6665 382.03 94.5044 382.03 112.51 382.03ZM8.62158 382.06C21.753 382.06 34.6577 382.06 47.6487 382.06C47.6487 379.847 47.6069 377.747 47.6586 375.65C47.7547 371.831 46.3131 370.032 42.1709 368.64C36.3038 366.67 30.2001 365.977 23.988 366.243C20.1514 366.407 16.3171 366.69 12.6677 367.978C9.92022 368.947 8.61911 370.708 8.62158 373.428C8.62404 375.175 8.62404 376.921 8.62404 378.668C8.62158 379.797 8.62158 380.925 8.62158 382.06Z" fill="white"/>
<path d="M0.598547 470.333C0.598547 467.508 0.598547 464.797 0.598547 462.003C0.89178 462.001 40.3354 462.042 59.7627 462.054C75.8757 462.063 91.9913 462.028 108.104 462.095C110.253 462.105 111.475 461.242 112.212 459.534C113.688 456.11 113.695 452.658 112.222 449.231C111.451 447.439 110.105 446.562 107.905 446.564C72.6599 446.596 37.4129 446.58 2.16581 446.576C1.6779 446.576 1.18748 446.576 0.603476 446.576C0.603476 443.839 0.603476 441.188 0.603476 438.382C2.31359 438.382 4.01138 438.384 5.70917 438.382C26.4302 438.363 47.1536 438.345 67.8746 438.329C81.2056 438.317 94.5391 438.38 107.873 438.26C113.545 438.209 118.68 442.104 120.326 446.469C121.063 448.419 121.206 450.228 121.181 452.517C121.11 455.346 121.352 457.741 120.901 460.247C119.878 465.944 114.141 470.483 107.555 470.42C87.2477 470.231 66.9382 470.337 46.6288 470.333C31.6911 470.328 16.756 470.33 1.81836 470.328C1.36742 470.33 1.15791 470.333 0.598547 470.333Z" fill="white"/>
<path d="M121.197 304.27C121.197 306.915 121.197 309.511 121.197 312.203C81.0187 312.203 40.8532 312.203 0.601374 312.203C0.601374 309.591 0.601374 307.009 0.601374 304.27C40.7645 304.27 80.9177 304.27 121.197 304.27Z" fill="white"/>
<path d="M121.144 150.114C80.9412 147.53 40.6796 144.828 0.573175 142.25C0.573175 144.756 0.573175 147.078 0.573175 149.487C29.5392 151.672 59.173 153.935 88.0946 156.118C88.0922 156.176 64.8677 158.458 53.5104 159.584C53.5104 162.779 53.5104 165.867 53.5104 169.042C64.7445 170.154 76.6265 171.315 88.0922 172.45C87.5501 172.51 86.3722 172.6 86.2293 172.611L0.57071 178.514L0.57071 183.369C0.57071 184.038 0.57071 186.098 0.57071 186.098C0.57071 186.168 0.57071 186.234 0.57071 186.306C40.8003 183.719 81.2 181.119 121.178 178.548V168.004L119.885 167.893C119.885 167.893 119.858 167.884 119.838 167.884C117.036 167.639 114.234 167.408 111.433 167.168L78.7112 164.362L114.747 161.162C115.947 161.061 117.13 160.959 118.335 160.857C118.638 160.832 118.896 160.804 119.123 160.774L121.173 160.592V150.28C121.173 150.225 121.178 150.176 121.178 150.121L121.173 150.109L121.144 150.114Z" fill="white"/>
<path d="M121.176 596.274L37.486 605.439C35.426 605.656 33.3611 605.861 31.3011 606.087C28.3145 606.415 25.3304 606.766 22.3414 607.091C20.0621 607.338 17.7779 607.548 15.4961 607.797C12.5095 608.122 9.52791 608.471 6.54384 608.808C4.54541 609.034 2.54449 609.255 0.57071 609.475C0.57071 611.664 0.57071 613.72 0.57071 615.792L121.173 629L121.178 621.651C119.542 621.439 87.3727 618.107 87.0745 618.093C87.0745 614.47 87.0745 610.785 87.0745 607.158C90.0315 606.851 92.9515 606.544 95.8715 606.242C99.856 605.831 120.466 603.794 121.178 603.697C121.178 601.413 121.178 598.639 121.178 596.357L121.176 596.274ZM76.2914 616.969C62.1768 615.539 48.1188 614.115 34.0609 612.691C34.0634 612.633 34.0683 612.573 34.0708 612.516C48.109 611.094 62.1448 609.675 76.2914 608.245C76.2914 611.201 76.2914 614.006 76.2914 616.969Z" fill="white"/>
<path d="M37.4755 77.4741C35.4303 77.6818 33.3604 77.8894 31.2905 78.1202C28.3089 78.4432 25.3273 78.7893 22.3457 79.1124C20.054 79.3662 17.787 79.5739 15.4953 79.8278C12.5137 80.1508 9.53212 80.4968 6.55051 80.843C4.55455 81.0506 2.53398 81.2814 0.562663 81.5121L0.562663 87.8114L121.182 101.033V93.6722C119.556 93.4645 87.3745 90.1418 87.0788 90.1188V79.1816C90.0357 78.8817 92.9434 78.5817 95.8758 78.2817C99.8677 77.8664 120.468 75.8127 121.182 75.7205V68.3137L37.4755 77.4741ZM76.2858 89.0112C62.3633 87.5806 48.4902 86.1731 34.6171 84.7656L33.2126 84.6271C33.2126 84.6271 62.7083 81.6274 76.2858 80.2661V89.0112Z" fill="white"/>
<path d="M55.8743 233.252C50.6133 238.887 45.1848 244.383 39.8548 249.963C38.5045 251.377 36.9225 252.129 34.8748 252.12C28.4878 252.095 22.1007 252.122 15.7136 252.122C12.6802 252.122 10.5562 250.708 9.62717 248.029C8.71298 245.392 8.61692 242.738 9.50155 240.057C10.4059 237.316 11.9928 235.894 14.6861 235.581H41.6167L41.4763 235.029C41.4714 234.944 41.4688 234.861 41.4491 234.787C41.2865 234.169 41.1116 233.552 40.9391 232.934L40.1654 229.916C40.1112 229.681 40.0397 229.448 39.9905 229.212C39.9806 229.171 39.9683 229.145 39.9584 229.108L39.7317 228.227H15.2405C14.6812 228.222 14.1219 228.204 13.5625 228.204C12.9957 228.204 12.4117 228.188 11.8622 228.294C6.50271 229.33 3.01345 232.364 1.41915 237.23C0.283176 240.698 0.56404 244.291 0.884379 247.838C1.14558 250.736 2.22495 253.373 4.45254 255.508C7.14338 258.09 10.2703 259.589 14.2524 259.541C22.9952 259.435 31.7429 259.439 40.4857 259.46C43.5339 259.467 46.0497 258.514 48.026 256.338C53.2746 250.556 58.5602 244.801 63.7349 238.961C65.1443 237.371 66.714 236.254 68.8948 235.973C69.9815 235.832 71.078 235.691 72.1721 235.689C83.5811 235.668 94.9876 235.675 106.397 235.678C109.41 235.678 111.293 236.967 112.232 239.686C113.185 242.448 113.183 245.21 112.232 247.971C111.352 250.521 109.169 252.162 106.54 252.169C100.419 252.18 94.2976 252.155 88.1767 252.15C84.0764 252.146 79.9761 252.15 75.6786 252.15L77.5981 259.483H78.7095L78.7218 259.486C78.8746 259.486 79.0299 259.483 79.1827 259.483H79.9613C89.2831 259.449 98.6025 259.336 107.922 259.506C113.488 259.608 118.89 255.298 120.28 250.948C121.443 247.307 121.268 243.615 120.972 239.928C120.738 236.995 119.673 234.295 117.384 232.156C115.218 230.133 112.86 228.382 109.605 228.368C95.7269 228.31 81.8488 228.375 67.9707 228.202C62.9759 228.135 59.122 229.773 55.8743 233.252Z" fill="white"/>
<path d="M0.598547 6.88757L47.272 16.0873L0.598547 25.2847L0.598547 32.1746L58.2866 19.9822H121.122V12.1924H58.2866L0.598547 0L0.598547 6.88757Z" fill="white"/>
</svg>
