<svg width="84" height="59" viewBox="0 0 84 59" fill="none" xmlns="http://www.w3.org/2000/svg">
<g opacity="0.9" clip-path="url(#clip0_613_4060)">
<path d="M54.174 0C37.5641 0 24.3516 13.2563 24.3516 29.5C24.3516 45.9304 37.7528 59 54.174 59C70.5952 59 83.9964 45.7437 83.9964 29.5C83.9964 13.2563 70.5952 0 54.174 0ZM54.174 40.5158C48.1341 40.5158 43.0378 35.4747 43.0378 29.5C43.0378 23.5253 48.1341 18.4842 54.174 18.4842C60.214 18.4842 65.3102 23.5253 65.3102 29.5C65.1218 35.4747 60.214 40.5158 54.174 40.5158Z" fill="white"/>
<path d="M24.16 8.58864V51.5316H13.59L0 8.58864H24.16Z" fill="white"/>
</g>
<defs>
<clipPath id="clip0_613_4060">
<rect width="84" height="59" fill="white"/>
</clipPath>
</defs>
</svg>
