<svg width="138" height="40" viewBox="0 0 138 40" fill="none" xmlns="http://www.w3.org/2000/svg">
<g opacity="0.9">
<path d="M123.814 0H97.2461C98.7938 8.77418 107.306 17.0322 116.592 17.0322H137.743C138.001 16.2581 138.001 14.9677 138.001 14.1935C138.001 6.4516 131.553 0 123.814 0Z" fill="white"/>
<path d="M99.5664 18.5807V40H112.464V28.6452H123.813C130.004 28.6452 135.421 24.2582 137.226 18.5807H99.5664Z" fill="white"/>
<path d="M54.168 0V39.7419H65.5175C65.5175 39.7419 68.3549 39.7419 69.9025 36.9032C77.6408 21.6774 79.9623 17.0322 79.9623 17.0322H81.51V39.7419H94.4071V0H83.0577C83.0577 0 80.2202 0.25808 78.6726 2.83872C72.224 16 68.6128 22.7096 68.6128 22.7096H67.0651V0H54.168Z" fill="white"/>
<path d="M0 39.9998V0.25798H12.8972C12.8972 0.25798 16.5084 0.257972 18.572 5.93538C23.7308 20.9031 24.2467 22.9676 24.2467 22.9676C24.2467 22.9676 25.2785 19.3547 29.9214 5.93538C31.985 0.257972 35.5962 0.25798 35.5962 0.25798H48.4934V39.9998H35.5962V18.5805H34.0486L26.8262 39.9998H21.1514L13.929 18.5805H12.3813V39.9998H0Z" fill="white"/>
</g>
</svg>
