<svg width="96" height="96" viewBox="0 0 96 96" fill="none" xmlns="http://www.w3.org/2000/svg">
<g opacity="0.9">
<path d="M94.1101 84.3312V84.5232H94.2891C94.3228 84.5237 94.3559 84.5153 94.3851 84.4987C94.3968 84.4905 94.4062 84.4794 94.4125 84.4666C94.4188 84.4538 94.4218 84.4396 94.4211 84.4253C94.4218 84.4113 94.4188 84.3974 94.4125 84.3848C94.4062 84.3723 94.3968 84.3616 94.3851 84.3538C94.3562 84.3364 94.3229 84.3279 94.2891 84.3293H94.1101V84.3312ZM94.2911 84.1954C94.3678 84.1906 94.4438 84.2127 94.5061 84.2578C94.5311 84.2782 94.5509 84.3042 94.564 84.3338C94.5771 84.3633 94.5831 84.3954 94.5815 84.4277C94.5826 84.4554 94.5778 84.4831 94.5674 84.5089C94.5569 84.5346 94.5411 84.5578 94.521 84.577C94.4729 84.6187 94.4126 84.6438 94.3491 84.6485L94.5891 84.9221H94.4043L94.1835 84.6504H94.112V84.9221H93.9575V84.1958H94.2935L94.2911 84.1954ZM94.2431 85.1726C94.3241 85.1734 94.4044 85.1571 94.4787 85.1246C94.5504 85.0938 94.6155 85.0497 94.6707 84.9946C94.7261 84.9395 94.7702 84.8743 94.8008 84.8026C94.8638 84.6504 94.8638 84.4795 94.8008 84.3274C94.7698 84.2558 94.7257 84.1907 94.6707 84.1354C94.6155 84.0803 94.5504 84.0362 94.4787 84.0053C94.404 83.9746 94.3239 83.9593 94.2431 83.9602C94.1609 83.9594 94.0794 83.9747 94.0031 84.0053C93.9298 84.0355 93.8632 84.0797 93.8067 84.1354C93.7218 84.2225 93.6644 84.3326 93.6416 84.4521C93.6188 84.5716 93.6317 84.6951 93.6786 84.8074C93.7078 84.8794 93.7514 84.9447 93.8067 84.9994C93.8632 85.055 93.9299 85.0991 94.0031 85.1294C94.0789 85.1618 94.1606 85.1782 94.2431 85.1774M94.2431 83.7854C94.454 83.7852 94.6566 83.868 94.8071 84.0158C94.8796 84.0868 94.9374 84.1715 94.977 84.265C95.018 84.3609 95.0392 84.4642 95.0392 84.5686C95.0392 84.6729 95.018 84.7762 94.977 84.8722C94.9364 84.9651 94.8788 85.0496 94.8071 85.1213C94.7334 85.1919 94.6478 85.2488 94.5541 85.2893C94.4558 85.3311 94.3499 85.3523 94.2431 85.3517C94.135 85.3525 94.0278 85.3312 93.9282 85.2893C93.8335 85.2497 93.747 85.1927 93.6733 85.1213C93.6016 85.047 93.5447 84.9597 93.5058 84.864C93.4648 84.768 93.4436 84.6648 93.4436 84.5604C93.4436 84.456 93.4648 84.3528 93.5058 84.2568C93.5454 84.1633 93.6032 84.0787 93.6757 84.0077C93.7484 83.935 93.8351 83.8778 93.9306 83.8397C94.0302 83.7977 94.1374 83.7765 94.2455 83.7773M20.7455 80.9808C20.7455 79.596 21.6527 78.4584 23.1354 78.4584C24.5523 78.4584 25.5085 79.547 25.5085 80.9808C25.5085 82.4146 24.5523 83.5032 23.1354 83.5032C21.6527 83.5032 20.7455 82.3656 20.7455 80.9808ZM27.1237 80.9808V77.04H25.4106V78C24.8672 77.2906 24.0431 76.8456 22.9223 76.8456C20.7143 76.8456 18.9815 78.5774 18.9815 80.9827C18.9815 83.388 20.7133 85.1198 22.9223 85.1198C24.0426 85.1198 24.8672 84.6744 25.4106 83.9654V84.9221H27.1218V80.9808H27.1237ZM85.0079 80.9808C85.0079 79.596 85.9151 78.4584 87.3983 78.4584C88.8167 78.4584 89.7714 79.547 89.7714 80.9808C89.7714 82.4146 88.8167 83.5032 87.3983 83.5032C85.9155 83.5032 85.0079 82.3656 85.0079 80.9808ZM91.388 80.9808V73.8768H89.6735V78C89.1301 77.2906 88.3059 76.8456 87.1851 76.8456C84.9771 76.8456 83.2443 78.5774 83.2443 80.9827C83.2443 83.388 84.9762 85.1198 87.1851 85.1198C88.3059 85.1198 89.1301 84.6744 89.6735 83.9654V84.9221H91.388V80.9808ZM48.3858 78.3773C49.4898 78.3773 50.1987 79.0694 50.3797 80.2882H46.292C46.4749 79.1506 47.1656 78.3773 48.3863 78.3773M48.4203 76.8413C46.1115 76.8413 44.4963 78.5213 44.4963 80.9784C44.4963 83.4835 46.1763 85.1155 48.5351 85.1155C49.7216 85.1155 50.8083 84.8194 51.7645 84.0115L50.925 82.7419C50.2645 83.2699 49.4235 83.5661 48.633 83.5661C47.529 83.5661 46.5239 83.0549 46.2767 81.6365H52.1264C52.1432 81.4234 52.1605 81.2083 52.1605 80.9779C52.1432 78.5218 50.6245 76.8408 48.4194 76.8408M69.1026 80.9779C69.1026 79.5931 70.0098 78.4555 71.4925 78.4555C72.9095 78.4555 73.8656 79.5442 73.8656 80.9779C73.8656 82.4117 72.9095 83.5003 71.4925 83.5003C70.0098 83.5003 69.1021 82.3627 69.1021 80.9779M75.4803 80.9779V77.04H73.7682V78C73.2229 77.2906 72.4007 76.8456 71.2799 76.8456C69.0719 76.8456 67.3391 78.5774 67.3391 80.9827C67.3391 83.388 69.0709 85.1198 71.2799 85.1198C72.4007 85.1198 73.2229 84.6744 73.7682 83.9654V84.9221H75.4808V80.9808L75.4803 80.9779ZM59.4282 80.9779C59.4282 83.3678 61.0919 85.115 63.6311 85.115C64.8176 85.115 65.6082 84.851 66.4631 84.1757L65.6403 82.7909C64.9971 83.2531 64.3218 83.5003 63.5763 83.5003C62.2088 83.4835 61.2032 82.4947 61.2032 80.9779C61.2032 79.4611 62.2088 78.4728 63.5763 78.4555C64.3199 78.4555 64.9952 78.7027 65.6403 79.165L66.4631 77.7802C65.6067 77.1048 64.8162 76.8408 63.6311 76.8408C61.0919 76.8408 59.4282 78.5875 59.4282 80.9779ZM81.513 76.8408C80.5247 76.8408 79.881 77.303 79.436 77.9952V77.04H77.7383V84.9178H79.4533V80.5018C79.4533 79.1981 80.0135 78.4738 81.1333 78.4738C81.5 78.4685 81.8641 78.5358 82.2047 78.672L82.7327 77.0573C82.3535 76.908 81.8591 76.8422 81.512 76.8422M35.5933 77.6664C34.7691 77.123 33.6335 76.8422 32.3807 76.8422C30.3848 76.8422 29.0999 77.7989 29.0999 79.3642C29.0999 80.6486 30.0565 81.4411 31.8181 81.6883L32.6274 81.8035C33.5667 81.9355 34.0103 82.1827 34.0103 82.6277C34.0103 83.2368 33.3863 83.5843 32.2146 83.5843C31.028 83.5843 30.1717 83.2051 29.5943 82.7602L28.7893 84.096C29.7287 84.7882 30.9152 85.1184 32.2002 85.1184C34.4754 85.1184 35.7939 84.047 35.7939 82.547C35.7939 81.1622 34.7562 80.4379 33.0416 80.1907L32.2343 80.0736C31.4927 79.9776 30.8984 79.8283 30.8984 79.3003C30.8984 78.7243 31.4586 78.3778 32.3984 78.3778C33.404 78.3778 34.3775 78.757 34.8546 79.0531L35.5962 77.6683L35.5933 77.6664ZM57.6978 76.8437C56.7095 76.8437 56.0658 77.3059 55.6227 77.9981V77.04H53.925V84.9178H55.6381V80.5018C55.6381 79.1981 56.1983 78.4738 57.3181 78.4738C57.6848 78.4685 58.0489 78.5358 58.3895 78.672L58.9175 77.0573C58.5383 76.908 58.0439 76.8422 57.6968 76.8422M43.0789 77.04H40.2776V74.6501H38.5458V77.04H36.9479V78.6058H38.5458V82.1995C38.5458 84.0274 39.2552 85.116 41.2818 85.116C42.0253 85.116 42.8816 84.8856 43.425 84.5069L42.9301 83.04C42.4189 83.3362 41.8587 83.4854 41.4133 83.4854C40.557 83.4854 40.2776 82.9574 40.2776 82.1669V78.6072H43.0789V77.04ZM17.4666 84.9197V79.9757C17.4666 78.1138 16.28 76.861 14.3672 76.8442C13.3616 76.8274 12.3243 77.1403 11.5981 78.2458C11.0547 77.3722 10.1984 76.8442 8.99458 76.8442C8.15314 76.8442 7.3309 77.0914 6.68722 78.0139V77.04H4.97266V84.9178H6.70066V80.5498C6.70066 79.1822 7.45906 78.4555 8.63026 78.4555C9.76786 78.4555 10.3434 79.1971 10.3434 80.5325V84.9168H12.0752V80.5488C12.0752 79.1813 12.8658 78.4546 14.0029 78.4546C15.1727 78.4546 15.7309 79.1962 15.7309 80.5315V84.9158L17.4666 84.9197Z" fill="white"/>
<path d="M95.0863 58.7146V57.5626H94.7863L94.4392 58.3531L94.0941 57.5626H93.7931V58.7146H94.0063V57.8467L94.3307 58.5955H94.5515L94.876 57.8448V58.7146H95.0872H95.0863ZM93.1831 58.7146V57.7598H93.5671V57.5654H92.5859V57.7598H92.9699V58.7146H93.1811H93.1831Z" fill="white"/>
<path d="M45.372 64.444C45.604 64.64 45.852 64.836 46.096 65.028C41.388 68.16 35.736 69.98 29.668 69.98C13.28 69.984 0 56.704 0 40.32C0 23.94 13.28 10.656 29.664 10.656C35.736 10.656 41.388 12.48 46.084 15.608C45.844 15.812 45.604 16 45.424 16.208C38.4 22.276 34.38 31.072 34.38 40.32C34.38 49.564 38.384 58.36 45.372 64.444ZM66.336 10.656C60.256 10.656 54.612 12.48 49.916 15.608C50.156 15.812 50.396 16 50.576 16.208C57.6 22.276 61.62 31.072 61.62 40.32C61.62 49.56 57.616 58.348 50.628 64.444C50.396 64.64 50.148 64.836 49.904 65.028C54.612 68.16 60.256 69.98 66.332 69.98C82.72 69.984 96 56.704 96 40.32C96 23.944 82.72 10.656 66.336 10.656ZM48 17.016C47.616 17.316 47.244 17.616 46.88 17.94C40.624 23.376 36.676 31.38 36.676 40.32C36.676 49.264 40.624 57.264 46.88 62.7C47.24 63.02 47.62 63.332 48 63.628C48.384 63.332 48.756 63.02 49.12 62.7C55.372 57.264 59.324 49.264 59.324 40.32C59.324 31.38 55.376 23.376 49.12 17.94C48.76 17.62 48.384 17.316 48 17.016Z" fill="white"/>
</g>
</svg>
