<svg width="130" height="40" viewBox="0 0 130 40" fill="none" xmlns="http://www.w3.org/2000/svg">
<g opacity="0.9" clip-path="url(#clip0_613_4050)">
<path d="M94.445 1.78642C91.4294 0.690044 88.2418 0.139877 85.0324 0.161826C74.6531 0.161826 67.3228 5.37865 67.2709 12.8673C67.206 18.3689 72.48 21.4693 76.4695 23.3075C80.5628 25.1974 81.9316 26.3884 81.9186 28.0777C81.8926 30.6473 78.6491 31.8123 75.6327 31.8123C71.4874 31.8123 69.2235 31.2363 65.7399 29.7929L64.449 29.191L62.9765 37.8123C65.4999 38.8609 70.0473 39.7605 74.7439 39.8382C85.7784 39.8382 92.9919 34.6537 93.0763 26.6861C93.1671 22.2913 90.3128 18.9709 84.3058 16.2265C80.6536 14.4466 78.3896 13.2557 78.3896 11.4498C78.3896 9.85114 80.3293 8.14241 84.3837 8.14241C87.082 8.07727 89.7636 8.58239 92.2524 9.62461L93.2255 10.0583L94.698 1.72817L94.445 1.78642ZM121.379 0.860853H113.27C110.747 0.860853 108.846 1.55341 107.743 4.05179L92.1486 39.301H103.183L105.389 33.521L118.856 33.534C119.174 34.8867 120.147 39.301 120.147 39.301H129.877L121.379 0.860853ZM52.3442 0.537228H62.8597L56.2819 38.9968H45.7794L52.3442 0.524283V0.537228ZM25.6501 21.7346L26.7399 27.0744L37.0154 0.860853H48.1536L31.6052 39.2492H20.4929L11.4111 6.74435C11.264 6.20837 10.9186 5.74805 10.4445 5.45632C7.17119 3.76919 3.70286 2.48886 0.117188 1.64402L0.259902 0.834959H17.1846C19.481 0.925574 21.3298 1.64402 21.946 4.09062L25.6436 21.7541L25.6501 21.7346ZM108.405 25.657L112.596 14.8997C112.544 15.0162 113.459 12.6796 113.99 11.2363L114.711 14.5566L117.143 25.6505H108.399L108.405 25.657Z" fill="white"/>
</g>
<defs>
<clipPath id="clip0_613_4050">
<rect width="130" height="40" fill="white"/>
</clipPath>
</defs>
</svg>
