<svg width="96" height="96" viewBox="0 0 96 96" fill="none" xmlns="http://www.w3.org/2000/svg">
<g opacity="0.9">
<path d="M28.874 84.7768V79.5904C28.874 77.6327 27.6422 76.3157 25.6817 76.299C24.6552 76.2822 23.5753 76.611 22.8281 77.7646C22.2676 76.8476 21.391 76.299 20.1449 76.299C19.678 76.2751 19.2131 76.3759 18.7962 76.5915C18.3792 76.807 18.0247 77.1299 17.7676 77.528V76.5063H16V84.7872H17.784V80.1872C17.784 78.7487 18.5662 77.9866 19.7712 77.9866C20.9435 77.9866 21.5388 78.7655 21.5388 80.1683V84.7747H23.3228V80.1872C23.3228 78.7487 24.144 77.9866 25.3101 77.9866C26.5151 77.9866 27.0941 78.7655 27.0941 80.1683V84.7747L28.874 84.7768ZM38.8266 80.6373V76.4979H37.059V77.4966C36.4986 76.7512 35.6487 76.2843 34.4949 76.2843C32.2182 76.2843 30.4363 78.1038 30.4363 80.6331C30.4363 83.1624 32.2203 84.982 34.4949 84.982C35.6507 84.982 36.4986 84.515 37.059 83.7696V84.7747H38.8266V80.6373ZM32.2572 80.6373C32.2572 79.1821 33.1913 77.9866 34.7207 77.9866C36.1824 77.9866 37.1658 79.1298 37.1658 80.6373C37.1658 82.1449 36.1804 83.2881 34.7207 83.2881C33.1872 83.2881 32.2531 82.0925 32.2531 80.6373H32.2572ZM76.6253 76.2801C77.222 76.2741 77.8141 76.3872 78.3682 76.6131C78.8845 76.8234 79.3553 77.135 79.754 77.5301C80.1467 77.9229 80.4581 78.3921 80.6696 78.91C81.1101 80.0192 81.1101 81.2597 80.6696 82.3689C80.4581 82.8867 80.1467 83.356 79.754 83.7487C79.3554 84.1439 78.8845 84.4555 78.3682 84.6658C77.2459 85.1114 76.0006 85.1114 74.8783 84.6658C74.3629 84.4561 73.8933 84.1444 73.4966 83.7487C73.1063 83.3548 72.7964 82.8858 72.5851 82.3689C72.1446 81.2597 72.1446 80.0192 72.5851 78.91C72.7965 78.3931 73.1063 77.9241 73.4966 77.5301C73.8933 77.1345 74.3629 76.8228 74.8783 76.6131C75.4337 76.3867 76.0272 76.2736 76.6253 76.2801ZM76.6253 77.9845C76.28 77.9814 75.9376 78.0476 75.6173 78.1792C75.3155 78.3028 75.0416 78.4881 74.8126 78.7236C74.582 78.964 74.4006 79.2487 74.2788 79.5611C74.0189 80.2541 74.0189 81.0205 74.2788 81.7135C74.4005 82.0261 74.5819 82.3107 74.8126 82.5511C75.0416 82.7866 75.3155 82.9718 75.6173 83.0954C76.2659 83.3549 76.9867 83.3549 77.6353 83.0954C77.938 82.9711 78.2131 82.786 78.4442 82.5511C78.6768 82.3115 78.8597 82.0267 78.9821 81.7135C79.2419 81.0205 79.2419 80.2541 78.9821 79.5611C78.8597 79.248 78.6768 78.9631 78.4442 78.7236C78.2131 78.4887 77.938 78.3036 77.6353 78.1792C77.3146 78.0466 76.9714 77.9797 76.6253 77.9824V77.9845ZM48.4385 80.6373C48.422 78.0557 46.8598 76.2885 44.583 76.2885C42.2057 76.2885 40.5408 78.0557 40.5408 80.6373C40.5408 83.2713 42.2735 84.9861 44.7021 84.9861C45.9339 84.9861 47.0466 84.6742 48.032 83.8262L47.1656 82.4924C46.495 83.0409 45.6643 83.3459 44.8048 83.3593C43.6674 83.3593 42.6307 82.8233 42.3761 81.3325H48.4056C48.4179 81.1042 48.4385 80.8802 48.4385 80.6373ZM42.3926 79.9108C42.5794 78.7152 43.2918 77.9007 44.5502 77.9007C45.6875 77.9007 46.4184 78.6273 46.6031 79.9108H42.3926ZM55.8783 78.6126C55.107 78.1594 54.2351 77.9144 53.345 77.9007C52.376 77.9007 51.7991 78.2651 51.7991 78.8702C51.7991 79.425 52.415 79.58 53.1746 79.6847L54.006 79.8061C55.7736 80.0657 56.8432 80.8279 56.8432 82.283C56.8432 83.8597 55.4841 84.9861 53.1479 84.9861C51.8238 84.9861 50.6002 84.6386 49.6312 83.912L50.4627 82.5092C51.2423 83.0992 52.1939 83.4045 53.1643 83.376C54.3694 83.376 55.012 83.0117 55.012 82.371C55.012 81.9041 54.5542 81.6444 53.5852 81.5042L52.7537 81.3827C50.9369 81.1231 49.9515 80.2919 49.9515 78.9393C49.9515 77.2935 51.2756 76.2885 53.3306 76.2885C54.6219 76.2885 55.7941 76.5837 56.642 77.1553L55.8783 78.6126ZM64.3672 78.1457H61.4787V81.8936C61.4787 82.7311 61.7682 83.2797 62.6509 83.2797C63.202 83.2612 63.7395 83.1006 64.2132 82.8128L64.7224 84.3538C64.0598 84.775 63.2942 84.9971 62.5134 84.9945C60.4235 84.9945 59.6947 83.8513 59.6947 81.9271V78.1583H58.0524V76.5126H59.6947V74H61.4787V76.5126H64.3652L64.3672 78.1457ZM70.4809 76.2927C70.9092 76.2948 71.3341 76.3713 71.7373 76.5188L71.1932 78.2169C70.8422 78.0737 70.4668 78.0025 70.0887 78.0075C68.9329 78.0075 68.3561 78.7697 68.3561 80.139V84.781H66.5905V76.4979H68.3314V77.4966C68.5481 77.117 68.8611 76.804 69.2376 76.5906C69.6141 76.3772 70.0401 76.2714 70.4706 76.2843L70.4809 76.2927Z" fill="white"/>
<path d="M95.0863 58.7146V57.5626H94.7863L94.4392 58.3531L94.0941 57.5626H93.7931V58.7146H94.0063V57.8467L94.3307 58.5955H94.5515L94.876 57.8448V58.7146H95.0872H95.0863ZM93.1831 58.7146V57.7598H93.5671V57.5654H92.5859V57.7598H92.9699V58.7146H93.1811H93.1831Z" fill="white"/>
<path d="M45.372 64.444C45.604 64.64 45.852 64.836 46.096 65.028C41.388 68.16 35.736 69.98 29.668 69.98C13.28 69.984 0 56.704 0 40.32C0 23.94 13.28 10.656 29.664 10.656C35.736 10.656 41.388 12.48 46.084 15.608C45.844 15.812 45.604 16 45.424 16.208C38.4 22.276 34.38 31.072 34.38 40.32C34.38 49.564 38.384 58.36 45.372 64.444ZM66.336 10.656C60.256 10.656 54.612 12.48 49.916 15.608C50.156 15.812 50.396 16 50.576 16.208C57.6 22.276 61.62 31.072 61.62 40.32C61.62 49.56 57.616 58.348 50.628 64.444C50.396 64.64 50.148 64.836 49.904 65.028C54.612 68.16 60.256 69.98 66.332 69.98C82.72 69.984 96 56.704 96 40.32C96 23.944 82.72 10.656 66.336 10.656ZM48 17.016C47.616 17.316 47.244 17.616 46.88 17.94C40.624 23.376 36.676 31.38 36.676 40.32C36.676 49.264 40.624 57.264 46.88 62.7C47.24 63.02 47.62 63.332 48 63.628C48.384 63.332 48.756 63.02 49.12 62.7C55.372 57.264 59.324 49.264 59.324 40.32C59.324 31.38 55.376 23.376 49.12 17.94C48.76 17.62 48.384 17.316 48 17.016Z" fill="white"/>
</g>
</svg>
