<svg width="204" height="250" viewBox="0 0 204 250" fill="none" xmlns="http://www.w3.org/2000/svg">
<path d="M79.4323 28.8109L71.9488 60.3258L72.5101 92.1204L94.2123 69.9294L94.0252 24.149L85.3256 0L84.5773 4.7552L90.9382 23.6828L88.2255 64.4283L77.2808 81.6776L75.2229 62.5635L79.3388 37.016L79.4323 28.8109Z" fill="white"/>
<path d="M111.424 38.6009L116.195 62.004L127.888 79.16L129.478 68.7172L119.75 10.0697L114.605 16.41L120.311 0.652554L133.875 60.6986L133.688 92.5865L111.799 70.1158L111.424 38.6009Z" fill="white"/>
<path d="M90.0342 82.2367L111.924 83.1691L124.708 101.506L110.115 194.87L95.709 194.683L91.7801 202.142H114.106L133.064 100.139L113.482 79.315H93.0897L90.0342 82.2367Z" fill="white"/>
<path d="M85.1699 87.3959L84.2966 90.8763L79.4323 98.5846L88.3504 171.871L87.7263 177.838L73.2584 100.014L85.1699 87.3959Z" fill="white"/>
<path d="M67.2911 110.38L71.1458 117.624L102.871 129.263L134.575 117.687L138.451 110.426L102.871 117.845L67.2911 110.38Z" fill="#E63533"/>
<path d="M4.14048 248.503L6.43418 227.778L5.05646 221.925L1.74276 248.503H4.14048Z" fill="#E63533"/>
<path d="M175.242 248.503L177.536 227.778L177.081 222.925L176.158 221.925L172.845 248.503H175.242Z" fill="#E63533"/>
<path d="M30.9033 215.341L34.4085 234.698L33.0121 241.366L28.058 215.341H30.9033Z" fill="#E63533"/>
<path d="M55.7087 215.341H52.3456V248.503H55.7087V215.341Z" fill="#E63533"/>
<path d="M81.6744 215.341H78.7812V249.007H81.6744V215.341Z" fill="#E63533"/>
<path d="M106.88 215.341H103.742V248.503H106.88V215.341Z" fill="#E63533"/>
<path d="M123.659 215.63H120.73V226.732H123.659V215.63Z" fill="#E63533"/>
<path d="M145.289 215.341H148.147L149.34 231.793C149.34 231.793 148.436 242.663 148.436 242.772C148.436 242.88 146.555 242.52 146.555 242.52L145.289 215.341Z" fill="#E63533"/>
<path d="M195.217 215.293H197.816L199.922 225.493L198.616 230.143L195.217 215.293Z" fill="#E63533"/>
<path d="M35.9082 213.48V249.993C34.7707 249.993 33.5135 250.008 32.4284 249.993C32.3985 249.993 29.203 230.554 29.203 230.554C29.203 230.554 28.8962 228.69 28.7166 227.608L28.6717 227.347L28.5609 226.733L28.5594 227.22V249.986H25.9477V213.488H28.971C30.3779 221.424 31.7923 229.368 33.2067 237.305L33.2665 237.609V213.48H35.9082Z" fill="white"/>
<path d="M77.4559 249.991C77.4559 237.797 77.4559 225.659 77.4559 213.499C77.5629 213.486 77.6505 213.467 77.738 213.467C79.7279 213.47 81.717 213.482 83.7069 213.478C85.583 213.473 86.8904 214.596 87.4232 216.076C87.6709 216.764 87.7398 217.543 87.757 218.284C87.8019 220.172 87.8139 222.065 87.76 223.953C87.7188 225.384 87.4517 226.794 86.9278 228.138C86.8215 228.41 86.6015 228.637 86.4608 228.9C86.4152 228.984 86.41 229.153 86.4646 229.218C87.5183 230.476 87.8281 231.982 87.971 233.556C88.2831 236.997 88.1993 240.444 88.0952 243.888C88.0631 244.949 87.9403 246.036 87.6619 247.057C87.1628 248.884 85.5381 250.001 83.6328 250C81.7006 249.999 79.7691 249.994 77.8368 249.991C77.7238 249.991 77.6101 249.991 77.4559 249.991ZM80.0983 247.368C80.2577 247.368 82.0934 247.357 82.9593 247.357C83.1322 247.357 83.2931 247.351 83.4427 247.33C83.5924 247.309 83.7308 247.274 83.8581 247.219C84.212 247.066 84.4792 246.783 84.6543 246.337C84.8556 245.824 85.0307 245.292 85.1348 244.753C85.5179 242.765 85.6526 240.751 85.5606 238.733C85.491 237.217 85.3398 235.702 85.1639 234.193C85.0674 233.362 84.8736 232.537 84.3789 231.823C84.0721 231.38 83.6523 231.087 83.1187 231.067C82.172 231.032 81.2224 231.055 80.2742 231.058C80.2106 231.058 80.1462 231.085 80.0983 231.096C80.0983 236.518 80.0983 241.917 80.0983 247.368ZM80.0886 215.92C80.0886 219.895 80.0886 223.801 80.0886 227.734C80.8063 227.734 81.4873 227.721 82.1675 227.737C83.4061 227.766 83.9898 227.329 84.441 226.076C85.0801 224.3 85.3046 222.452 85.2186 220.571C85.1654 219.41 85.0734 218.249 84.6558 217.145C84.3415 216.313 83.7705 215.919 82.8882 215.92C82.3217 215.921 81.7552 215.921 81.1887 215.921C80.8227 215.92 80.4568 215.92 80.0886 215.92Z" fill="white"/>
<path d="M51.4596 213.491C52.3756 213.491 53.2549 213.491 54.1612 213.491C54.1619 213.58 54.1485 225.52 54.1447 231.401C54.1417 236.278 54.153 241.157 54.1313 246.034C54.1283 246.685 54.4081 247.055 54.9619 247.278C56.0725 247.724 57.192 247.727 58.3033 247.281C58.8848 247.047 59.1692 246.64 59.1684 245.974C59.1579 235.305 59.1632 224.635 59.1647 213.966C59.1647 213.818 59.1647 213.67 59.1647 213.493C60.0522 213.493 60.9121 213.493 61.8221 213.493C61.8221 214.01 61.8213 214.524 61.8221 215.038C61.8281 221.311 61.834 227.584 61.8393 233.856C61.843 237.892 61.8228 241.928 61.8617 245.964C61.8782 247.681 60.615 249.236 59.1991 249.734C58.5667 249.957 57.98 250 57.2377 249.993C56.3202 249.971 55.5434 250.044 54.7307 249.908C52.883 249.598 51.411 247.862 51.4312 245.868C51.4926 239.721 51.4582 233.573 51.4596 227.425C51.4611 222.903 51.4604 218.382 51.4611 213.861C51.4604 213.724 51.4596 213.661 51.4596 213.491Z" fill="white"/>
<path d="M105.318 249.997C104.46 249.997 103.618 249.997 102.745 249.997C102.745 237.835 102.745 225.677 102.745 213.492C103.592 213.492 104.429 213.492 105.318 213.492C105.318 225.65 105.318 237.805 105.318 249.997Z" fill="white"/>
<path d="M155.314 249.981C156.152 237.812 157.029 225.624 157.865 213.484C157.052 213.484 156.299 213.484 155.518 213.484C154.809 222.252 154.075 231.222 153.367 239.977C153.348 239.976 152.608 232.946 152.243 229.508C151.207 229.508 150.205 229.508 149.176 229.508C148.815 232.909 148.438 236.506 148.07 239.976C148.051 239.812 148.022 239.456 148.018 239.412L146.104 213.483H144.529C144.312 213.483 143.644 213.483 143.644 213.483C143.621 213.483 143.6 213.483 143.576 213.483C144.415 225.661 145.259 237.89 146.092 249.992H149.512L149.548 249.6C149.549 249.595 149.551 249.592 149.551 249.586C149.631 248.738 149.705 247.89 149.783 247.042L150.693 237.137L151.731 248.045C151.764 248.408 151.797 248.766 151.83 249.131C151.838 249.223 151.847 249.301 151.857 249.37L151.916 249.99H155.26C155.278 249.99 155.294 249.992 155.312 249.992V249.99H155.316L155.314 249.981Z" fill="white"/>
<path d="M10.6139 249.991L7.64142 224.657C7.57107 224.034 7.50447 223.409 7.43113 222.785C7.32487 221.881 7.21111 220.978 7.1056 220.073C7.02552 219.383 6.95742 218.692 6.8766 218.001C6.77108 217.097 6.65809 216.194 6.54883 215.291C6.47549 214.686 6.40364 214.08 6.33255 213.483C5.62237 213.483 4.95558 213.483 4.28356 213.483L0 249.99L2.3835 249.992C2.45235 249.496 3.53297 239.758 3.53746 239.668C4.71237 239.668 5.90749 239.668 7.08389 239.668C7.18343 240.563 7.28296 241.447 7.38099 242.331C7.5142 243.537 8.17499 249.776 8.20642 249.992C8.94729 249.992 9.84681 249.992 10.5869 249.992V249.99L10.6139 249.991ZM3.9019 236.404C4.36588 232.132 4.82762 227.876 5.28935 223.621C5.30806 223.621 5.32751 223.623 5.34622 223.624C5.80721 227.873 6.26744 232.122 6.73142 236.404C5.77278 236.404 4.86279 236.404 3.9019 236.404Z" fill="white"/>
<path d="M178.873 224.654C178.806 224.035 178.739 223.409 178.664 222.782C178.559 221.879 178.447 220.977 178.342 220.074C178.26 219.381 178.192 218.694 178.11 218.001C178.005 217.098 177.893 216.196 177.781 215.293C177.713 214.689 177.638 214.077 177.564 213.48H175.521L171.233 249.993H173.62C173.687 249.501 174.765 239.759 174.772 239.67H178.319C178.417 240.565 178.514 241.445 178.611 242.332C178.746 243.541 179.412 249.777 179.442 249.993H181.844L178.873 224.654ZM175.131 236.402C175.595 232.188 176.052 227.988 176.508 223.789L176.553 223.364C176.553 223.364 177.526 232.292 177.968 236.402H175.131Z" fill="white"/>
<path d="M128.351 230.224C126.523 228.631 124.74 226.988 122.931 225.374C122.472 224.966 122.228 224.487 122.231 223.867C122.239 221.934 122.231 220 122.231 218.067C122.231 217.149 122.689 216.506 123.558 216.224C124.413 215.948 125.274 215.919 126.144 216.186C127.033 216.46 127.494 216.94 127.595 217.756V225.908L127.774 225.865C127.802 225.864 127.829 225.863 127.853 225.857C128.053 225.808 128.253 225.755 128.454 225.703L129.433 225.468C129.509 225.452 129.585 225.43 129.661 225.416C129.674 225.413 129.683 225.409 129.695 225.406L129.98 225.337V217.924L129.979 217.923C129.98 217.753 129.988 217.585 129.988 217.416C129.988 217.244 129.993 217.067 129.959 216.901C129.623 215.279 128.639 214.222 127.06 213.74C125.936 213.396 124.77 213.481 123.62 213.578C122.68 213.657 121.825 213.984 121.133 214.658C120.295 215.473 119.809 216.419 119.825 217.624C119.859 220.271 119.857 222.919 119.851 225.565C119.849 226.488 120.158 227.25 120.863 227.848C122.739 229.437 124.605 231.037 126.499 232.603C127.015 233.03 127.377 233.505 127.468 234.165C127.514 234.494 127.56 234.826 127.56 235.157C127.567 238.611 127.565 242.064 127.564 245.517C127.564 246.429 127.146 246.999 126.264 247.283C125.368 247.572 124.473 247.571 123.577 247.283C122.75 247.017 122.218 246.356 122.216 245.56C122.212 243.708 122.22 241.855 122.222 240.002C122.223 238.761 122.222 237.519 122.222 236.219L119.843 236.8V237.136C119.843 237.136 119.843 237.138 119.843 237.14C119.843 237.186 119.843 237.233 119.843 237.279V237.515L119.845 237.514C119.856 240.336 119.891 243.158 119.836 245.979C119.803 247.664 121.201 249.299 122.611 249.72C123.792 250.072 124.99 250.019 126.186 249.929C127.137 249.858 128.012 249.536 128.706 248.843C129.362 248.188 129.93 247.474 129.935 246.488C129.954 242.287 129.933 238.086 129.989 233.885C130.01 232.373 129.479 231.207 128.351 230.224Z" fill="white"/>
<path d="M201.766 213.491L198.782 227.62L195.8 213.491H193.565L197.519 230.954V249.975H200.046V230.954L204 213.491H201.766Z" fill="white"/>
</svg>
